<?xml version="1.0" encoding="utf-8"?>
<!-- Generator: Adobe Illustrator 24.3.0, SVG Export Plug-In . SVG Version: 6.00 Build 0)  -->
<svg version="1.1" id="Layer_1" xmlns="http://www.w3.org/2000/svg" xmlns:xlink="http://www.w3.org/1999/xlink" x="0px" y="0px"
	 viewBox="0 0 180 180" style="enable-background:new 0 0 180 180;" xml:space="preserve">
<style type="text/css">
	.st0{fill:#F2F2F2;}
	.st1{fill:#B3B3B3;}
	.st2{fill:#FFDB76;}
	.st3{fill:#CCCBC9;}
	.st4{fill:#333333;}
	.st5{fill:#FFFFFF;}
	.st6{fill:#FF916E;}
	.st7{fill:#ADEBF6;}
</style>
<g>
	<g id="XMLID_729_">
		<g>
			<path class="st0" d="M154.6,90c0,35.7-28.9,64.6-64.6,64.6c-35.7,0-64.6-28.9-64.6-64.6c0-35.7,28.9-64.6,64.6-64.6
				C125.7,25.4,154.6,54.3,154.6,90z"/>
		</g>
	</g>
	<g>
		<path class="st1" d="M120.7,76.2C120.7,76.2,120.7,76.2,120.7,76.2c0-0.1,0-0.1,0-0.2c0-4.3-3.5-7.7-7.7-7.7
			c-3.5,0-6.4,2.3-7.4,5.5c-0.6-0.3-1.2-0.4-1.9-0.4c-2.5,0-4.5,2-4.5,4.5c0,0.6,0.1,1.1,0.3,1.6c0,0-0.1,0-0.1,0
			c-1.6,0-2.9,1.3-2.9,2.9c0,1.6,1.3,2.9,2.9,2.9h21.4c2.5,0,4.5-2,4.5-4.5C125.2,78.2,123.2,76.2,120.7,76.2z"/>
	</g>
	<g>
		<path class="st1" d="M58.1,64.4L58.1,64.4C58,64.4,58.1,64.3,58.1,64.4c0-1.9-1.5-3.4-3.3-3.4c-1.5,0-2.7,1-3.2,2.3
			c-0.2-0.1-0.5-0.2-0.8-0.2c-1.1,0-1.9,0.9-1.9,1.9c0,0.2,0,0.5,0.1,0.7c0,0,0,0-0.1,0c-0.7,0-1.2,0.6-1.2,1.2
			c0,0.7,0.6,1.2,1.2,1.2h9.1c1.1,0,1.9-0.9,1.9-1.9C60,65.2,59.1,64.4,58.1,64.4z"/>
	</g>
	<g>
		<path class="st1" d="M64.9,69.2C64.9,69.2,64.9,69.2,64.9,69.2C64.9,69.2,64.9,69.1,64.9,69.2c0-1.9-1.5-3.4-3.3-3.4
			c-1.5,0-2.7,1-3.2,2.3C58.2,68,57.9,68,57.6,68c-1.1,0-1.9,0.9-1.9,1.9c0,0.2,0,0.5,0.1,0.7c0,0,0,0-0.1,0c-0.7,0-1.2,0.6-1.2,1.2
			c0,0.7,0.6,1.2,1.2,1.2h9.1c1.1,0,1.9-0.9,1.9-1.9C66.8,70.1,66,69.2,64.9,69.2z"/>
	</g>
	<g>
		<circle class="st2" cx="74.3" cy="57.5" r="1.8"/>
	</g>
	<g>
		<g>
			<g>
				<path class="st2" d="M132.5,92.1c0-2-1.7-3.7-3.7-3.7c2,0,3.7-1.7,3.7-3.7c0,2.1,1.7,3.7,3.7,3.7
					C134.2,88.4,132.5,90.1,132.5,92.1z"/>
			</g>
		</g>
		<g>
			<g>
				<path class="st2" d="M125.3,83.8c0-1.6-1.3-2.8-2.8-2.8c1.6,0,2.8-1.3,2.8-2.8c0,1.6,1.3,2.8,2.8,2.8
					C126.5,81,125.3,82.3,125.3,83.8z"/>
			</g>
		</g>
		<g>
			<g>
				<path class="st2" d="M72.1,61c-0.7,0-1.4,0.6-1.4,1.4c0-0.7-0.6-1.4-1.4-1.4c0.7,0,1.4-0.6,1.4-1.4C70.7,60.4,71.3,61,72.1,61z"
					/>
			</g>
		</g>
		<g>
			<g>
				<path class="st2" d="M122.3,55.4c-1.8,0-3.3,1.5-3.3,3.3c0-1.8-1.5-3.3-3.3-3.3c1.8,0,3.3-1.5,3.3-3.3
					C118.9,53.9,120.4,55.4,122.3,55.4z"/>
			</g>
		</g>
		<g>
			<g>
				<path class="st2" d="M55.1,88.4c-1,0-1.9,0.8-1.9,1.9c0-1-0.8-1.9-1.9-1.9c1,0,1.9-0.8,1.9-1.9C53.2,87.5,54.1,88.4,55.1,88.4z"
					/>
			</g>
		</g>
		<g>
			<g>
				<path class="st2" d="M53.1,90.8c-1.7,0-3.2,1.4-3.2,3.1c0-1.7-1.4-3.1-3.1-3.1c1.7,0,3.1-1.4,3.1-3.2
					C49.9,89.4,51.4,90.8,53.1,90.8z"/>
			</g>
		</g>
	</g>
	<g>
		<g>
			<g>
				<g>
					<g>
						<path class="st3" d="M95.3,147.9c0-2.7,0-6.6,0-6.6H90h-5.3c0,0,0,3.9,0,6.6c0,2.7-7.2,4.9-7.2,4.9H90h12.4
							C102.4,152.7,95.3,150.6,95.3,147.9z"/>
					</g>
				</g>
				<g>
					<g>
						<path class="st3" d="M95.3,147.7c0-2.7,0-6.5,0-6.5H84.7c0,0,0,3.8,0,6.5H95.3z"/>
					</g>
				</g>
				<g>
					<g>
						<path class="st4" d="M103.5,153.6c0,0.6-0.5,1.1-1,1.1H77.6c-0.6,0-1-0.5-1-1.1l0,0c0-0.6,0.5-1.1,1-1.1h24.9
							C103,152.5,103.5,153,103.5,153.6L103.5,153.6z"/>
					</g>
				</g>
			</g>
			<g>
				<g>
					<g>
						<path class="st4" d="M123,93.3H57c-1.1,0-2.1,0.9-2.1,2.1v41h70.1v-41C125.1,94.2,124.1,93.3,123,93.3z"/>
					</g>
				</g>
				<g>
					<g>
						<rect x="58.3" y="96" class="st5" width="63.5" height="37.7"/>
					</g>
				</g>
				<g>
					<g>
						<path class="st5" d="M54.9,136v6.3c0,1.2,0.9,2.1,2.1,2.1h66c1.1,0,2.1-0.9,2.1-2.1V136H54.9z"/>
					</g>
				</g>
				<g>
					<g>
						<path class="st3" d="M91.9,140.2c0,1-0.8,1.9-1.9,1.9c-1,0-1.9-0.8-1.9-1.9c0-1,0.8-1.9,1.9-1.9
							C91,138.3,91.9,139.2,91.9,140.2z"/>
					</g>
				</g>
			</g>
		</g>
		<g>
			<g>
				<g>
					<path class="st6" d="M121.7,105.3c-5.4,0.3-9.6,4.7-9.6,10.1c0,0.7,0.1,1.5,0.2,2.2c-0.5-0.1-1-0.2-1.6-0.2c-0.2,0-0.4,0-0.6,0
						c0.2-0.7,0.3-1.4,0.3-2.1c0-3.7-3-6.8-6.8-6.8c-3.1,0-5.8,2.1-6.5,5c-0.7-0.4-1.5-0.6-2.4-0.6c0-0.3,0.1-0.6,0.1-0.9
						c0-3.8-3.1-6.8-6.8-6.8c-3.3,0-6,2.3-6.7,5.4c-0.4-0.4-0.8-0.6-1.4-0.7c0,0,0,0,0,0c0-3.8-3.1-6.9-6.9-6.9
						c-3.8,0-6.9,3.1-6.9,6.9c0,1.1,0.3,2.1,0.7,3.1c-0.1,0-0.3,0-0.4,0c-2.1,0-3.9,1.7-3.9,3.9c0,0.8,0.2,1.5,0.6,2.1
						c-4.4,0.2-8,3.9-8,8.4c0,2.6,1.2,4.9,3.1,6.5h63.3V105.3z"/>
				</g>
			</g>
			<g>
				<g>
					<path class="st6" d="M121.7,116.6C121.7,116.6,121.7,116.6,121.7,116.6c-4.2,0-7.8,2.8-9.1,6.6c-0.6-0.9-1.7-1.5-2.9-1.5
						c-0.6,0-1.1,0.1-1.5,0.4c-0.9-2.2-3-3.7-5.5-3.7c-2.6,0-4.8,1.7-5.6,4c-0.4-0.1-0.8-0.2-1.3-0.2c-0.7,0-1.3,0.2-1.8,0.4
						c0-0.1,0-0.3,0-0.4c0-4.1-3.3-7.4-7.4-7.4c-3,0-5.5,1.7-6.7,4.3c-0.5-0.4-1.2-0.6-1.9-0.6c-0.6,0-1.1,0.1-1.6,0.4
						c-1.2-1.8-3.3-3-5.6-3c-3.8,0-6.8,3.1-6.8,6.8c0,1.3,0.3,2.4,0.9,3.5c-2.1,0.5-3.7,2.4-3.7,4.7c0,1.1,0.4,2.1,1,2.9h59.6V116.6
						z"/>
				</g>
			</g>
			<g>
				<g>
					<path class="st2" d="M121.7,122.4c-0.8-0.3-1.7-0.5-2.6-0.5c-4.1,0-7.4,3.3-7.4,7.4c-0.1,0-0.1,0-0.2,0c-0.4,0-0.7,0.1-1,0.2
						c-0.2-3.5-3.1-6.4-6.7-6.4c-3.7,0-6.7,3-6.7,6.7c0,0.1,0,0.1,0,0.2c-0.6-0.4-1.4-0.7-2.2-0.7c-0.4,0-0.8,0.1-1.2,0.2
						c0.2-0.6,0.3-1.1,0.3-1.7c0-3.4-2.8-6.2-6.2-6.2c-3.2,0-5.7,2.4-6.1,5.4c-0.4-0.1-0.9-0.2-1.4-0.2c-1.4,0-2.6,0.6-3.5,1.5
						c-1.3-1.8-3.4-3-5.8-3c-4,0-7.2,3.2-7.2,7.2c0,0.5,0,1,0.1,1.4h57.7V122.4z"/>
				</g>
			</g>
			<g>
				<g>
					<path class="st2" d="M72.2,109.1c-0.7,0-1.4,0.6-1.4,1.4c0-0.7-0.6-1.4-1.4-1.4c0.7,0,1.4-0.6,1.4-1.4
						C70.8,108.5,71.4,109.1,72.2,109.1z"/>
				</g>
			</g>
			<g>
				<g>
					<path class="st2" d="M74.7,112.9c-1,0-1.9,0.8-1.9,1.9c0-1-0.8-1.9-1.9-1.9c1,0,1.9-0.8,1.9-1.9
						C72.8,112.1,73.7,112.9,74.7,112.9z"/>
				</g>
			</g>
		</g>
	</g>
	<g>
		<g>
			<path class="st2" d="M82.8,126.9c-13.1-3.9-20.9-10.5-23.1-19.5c-1.2-5-0.7-10.8,1.6-17.1c1.8-5,4.6-10.3,8.5-15.9
				c6.5-9.4,13.5-16.2,13.8-16.4l2.1,2.2C85.5,60.4,58,87,62.8,106.6c1.9,7.9,9,13.7,21,17.3L82.8,126.9z"/>
		</g>
	</g>
	<g>
		<g>
			<g>
				<path class="st7" d="M87.5,63.5c-0.3,0.3-0.8,0.3-1.1,0l-5-4.7c-0.3-0.3-0.3-0.8,0-1.1l0,0c0.3-0.3,0.8-0.3,1.1,0l5,4.7
					C87.7,62.7,87.7,63.2,87.5,63.5L87.5,63.5z"/>
			</g>
		</g>
		<g>
			<g>
				<path class="st7" d="M87.4,62.4L85,60.2l-1,1.1l2.4,2.3c0.3,0.3,0.8,0.3,1.1,0C87.7,63.2,87.7,62.7,87.4,62.4z"/>
			</g>
		</g>
		<g>
			<g>
				<path class="st6" d="M90.7,60.5c-0.4,3-0.5,6.8-2.5,9.8l1.1,1.1c3-2.2,7.3-5.4,8.5-6.4c2-1.5,1.9-2.7,1.9-2.7l0.8-8.9
					C100.5,53.4,91,57.5,90.7,60.5z"/>
			</g>
		</g>
		<g>
			<g>
				<path class="st6" d="M82,45.8c0,0-1.2,0-2.5,2.1c-0.9,1.3-3.8,5.8-5.8,8.9l1.1,1.1c2.8-2.2,6.7-2.6,9.6-3.2
					c3-0.6,6.5-10.3,6.5-10.3L82,45.8z"/>
			</g>
		</g>
		<g>
			<path class="st7" d="M114.9,28.1C114.9,28.1,114.9,28.1,114.9,28.1L114.9,28.1c-1.3-0.2-5.8-0.7-10.3,0.6
				c-9.2,2.7-23.8,28-23.8,28l3.9,3.6l3.9,3.6c0,0,24.4-16.2,26.4-25.6C116,33.9,115.2,29.4,114.9,28.1L114.9,28.1
				C114.9,28.2,114.9,28.2,114.9,28.1z"/>
		</g>
		<g>
			<g>
				<path class="st6" d="M115.2,37.4c0.9-5.1-0.3-9.3-0.3-9.3s-4.3-1-9.3,0.3c-0.4,0.1-0.8,0.2-1.2,0.3c1.3,2.7,4.3,7.1,10.5,9.8
					C115,38.2,115.1,37.8,115.2,37.4z"/>
			</g>
		</g>
		<g>
			<g>
				<path class="st2" d="M72.1,73.9c0,0,19.9-5.4,12-12.8C76.2,53.7,72.1,73.9,72.1,73.9z"/>
			</g>
		</g>
		<g>
			<g>
				<path class="st6" d="M84.3,58.8c-0.2,0.1-0.9,1-1.1,1.2c-0.1,0.2-1.6,2.6-2.4,4l0.5,0.5c1.3-0.9,3.6-2.5,3.8-2.6
					c0.3-0.2,1-0.9,1.2-1.2c0.1-0.2,0.4-1.1,0.5-1.6l-1-0.9C85.4,58.3,84.5,58.7,84.3,58.8z"/>
			</g>
		</g>
		<g>
			<g>
				<g>
					<path class="st0" d="M91.5,53.2c-1.6-1.5-1.7-4-0.2-5.6c0.7-0.8,1.7-1.2,2.8-1.3c1.1,0,2.1,0.3,2.9,1.1c1.6,1.5,1.7,4,0.2,5.6
						c-0.7,0.8-1.7,1.2-2.8,1.3C93.3,54.3,92.3,54,91.5,53.2L91.5,53.2z M96.4,48c-0.6-0.6-1.5-0.9-2.3-0.9c-0.9,0-1.7,0.4-2.2,1
						c-1.2,1.3-1.1,3.3,0.2,4.6l0,0c0.6,0.6,1.4,0.9,2.3,0.9c0.9,0,1.7-0.4,2.2-1C97.8,51.2,97.7,49.2,96.4,48z"/>
				</g>
			</g>
		</g>
		<g>
			<path class="st0" d="M99.9,40.1c-1.1,0-2,0.5-2.8,1.3c-1.5,1.6-1.4,4.1,0.2,5.6l0,0c0.8,0.7,1.8,1.1,2.9,1.1c1.1,0,2-0.5,2.8-1.3
				c1.5-1.6,1.4-4.1-0.2-5.6C102,40.5,100.9,40.1,99.9,40.1z M102.4,46.3c-0.6,0.6-1.4,1-2.2,1c-0.9,0-1.7-0.3-2.3-0.9l0,0
				c-1.3-1.2-1.4-3.3-0.2-4.6c0.6-0.6,1.4-1,2.2-1c0.9,0,1.7,0.3,2.3,0.9C103.5,43,103.6,45,102.4,46.3z"/>
			<path class="st0" d="M108.5,35c-0.8-0.7-1.8-1.1-2.9-1.1c-1.1,0-2,0.5-2.8,1.3c-1.5,1.6-1.4,4.1,0.2,5.6l0,0
				c0.8,0.7,1.8,1.1,2.9,1.1c1.1,0,2-0.5,2.8-1.3C110.2,39,110.1,36.5,108.5,35z M108.2,40.1c-0.6,0.6-1.4,1-2.2,1
				c-0.9,0-1.7-0.3-2.3-0.9l0,0c-1.3-1.2-1.4-3.3-0.2-4.6c0.6-0.6,1.4-1,2.2-1c0.9,0,1.7,0.3,2.3,0.9
				C109.3,36.8,109.4,38.8,108.2,40.1z"/>
		</g>
	</g>
</g>
</svg>
